<svg xmlns="http://www.w3.org/2000/svg">

  <symbol id="astro" viewBox="0 0 32 32">
    <title>file_type_astro</title><path d="M5.9 18.847a7.5 7.5 0 0 0-.572 2.624 3.3 3.3 0 0 0 .551 1.553 7.4 7.4 0 0 0 2.093 1.681l5.128 3.414a7.3 7.3 0 0 0 2.1 1.168 3.24 3.24 0 0 0 1.5 0 7.4 7.4 0 0 0 2.117-1.16L24 24.711a7.5 7.5 0 0 0 2.117-1.688 3.24 3.24 0 0 0 .55-1.563 7.5 7.5 0 0 0-.587-2.643L21.547 4.551a4 4 0 0 0-.54-1.3 1.73 1.73 0 0 0-.7-.51 4 4 0 0 0-1.4-.122h-5.902a3.9 3.9 0 0 0-1.4.125 1.7 1.7 0 0 0-.7.512 4 4 0 0 0-.535 1.3zm13.24-13.2a3.3 3.3 0 0 1 .441 1.093l3.892 12.784a16.2 16.2 0 0 0-4.653-1.573l-2.529-8.56a.33.33 0 0 0-.513-.169.32.32 0 0 0-.119.169l-2.5 8.557a16.1 16.1 0 0 0-4.674 1.579l3.908-12.784a3.3 3.3 0 0 1 .442-1.094 1.46 1.46 0 0 1 .582-.43 3.3 3.3 0 0 1 1.175-.1h2.793a3.3 3.3 0 0 1 1.176.1 1.45 1.45 0 0 1 .583.432ZM16.127 21.06a5.55 5.55 0 0 0 3.4-.923 2.8 2.8 0 0 1-.207 2.182 3.94 3.94 0 0 1-1.547 1.481c-.674.428-1.254.8-1.254 1.787a2.1 2.1 0 0 0 .209.914 2.49 2.49 0 0 1-1.535-2.3v-.061c0-.683 0-1.524-.962-1.524a1 1 0 0 0-.391.077 1.02 1.02 0 0 0-.552.551 1 1 0 0 0-.079.391 3.77 3.77 0 0 1-.988-2.644 4.2 4.2 0 0 1 .175-1.248c.4.757 1.92 1.32 3.731 1.32Z" style="fill:#ff5d01;fill-rule:evenodd"/>
  </symbol>

  <symbol id="css3" viewBox="0 0 32 32">
    <title>file_type_css</title><path d="M5.902 27.201 3.656 2h24.688l-2.249 25.197L15.985 30z" style="fill:#1572b6"/><path d="m16 27.858 8.17-2.265 1.922-21.532H16z" style="fill:#33a9dc"/><path d="M16 13.191h4.09l.282-3.165H16V6.935h7.75l-.074.829-.759 8.518H16z" style="fill:#fff"/><path d="m16.019 21.218-.014.004-3.442-.93-.22-2.465H9.24l.433 4.853 6.331 1.758.015-.004z" style="fill:#ebebeb"/><path d="m19.827 16.151-.372 4.139-3.447.93v3.216l6.336-1.756.047-.522.537-6.007z" style="fill:#fff"/><path d="M16.011 6.935v3.091H8.545l-.062-.695-.141-1.567-.074-.829zM16 13.191v3.091h-3.399l-.062-.695-.14-1.567-.074-.829z" style="fill:#ebebeb"/>
  </symbol>

  <symbol id="facebook" viewBox="0 0 24 24" fill="none" stroke="currentColor" stroke-linecap="round" stroke-linejoin="round">
    <path stroke="none" d="M0 0h24v24H0z"/><path d="M7 10v4h3v7h4v-7h3l1-4h-4V8a1 1 0 0 1 1-1h3V3h-3a5 5 0 0 0-5 5v2z"/>
  </symbol>

  <symbol id="html5" viewBox="0 0 32 32" fill="none">
    <path fill="#e44d26" d="M6 28 4 3h24l-2 25-10 3z"/><path fill="#f16529" d="M26 5H16v24.5l8-2.5z"/><path fill="#fff" d="M9.5 17.5 8.5 8H24l-.5 3h-12l.5 3.5h11L22 24l-6 2-6-2-.5-5h3l.5 2.5 3 1 3-1 .5-4z"/>
  </symbol>

  <symbol id="instagran" viewBox="0 0 24 24" fill="none" stroke="#607d8b" stroke-linecap="round" stroke-linejoin="round">
    <path d="M4 8a4 4 0 0 1 4-4h8a4 4 0 0 1 4 4v8a4 4 0 0 1-4 4H8a4 4 0 0 1-4-4z"/><path d="M9 12a3 3 0 1 0 6 0 3 3 0 1 0-6 0m7.5-4.5v.01"/>
  </symbol>

  <symbol id="javascript" viewBox="0 0 32 32" fill="none">
    <path fill="#ffca28" d="M2 2h28v28H2z"/><path fill="#3e3e3e" d="m19 25.288 2.061-1.364c.162.507 1.185 1.713 2.477 1.713 1.293 0 1.893-.706 1.893-1.174 0-1.275-1.32-1.725-1.954-1.94a4 4 0 0 1-.246-.09l-.133-.053c-.705-.269-3.306-1.262-3.306-4.143 0-3.172 3.062-3.537 3.754-3.537.453 0 2.63.056 3.716 2.094l-2 1.396c-.439-.889-1.167-1.182-1.616-1.182-1.108 0-1.338.812-1.338 1.182 0 1.037 1.203 1.502 2.22 1.894.265.103.518.2.734.303 1.107.523 2.738 1.38 2.738 4.076C28 25.813 26.867 28 24.015 28c-3.83 0-4.846-2.3-5.015-2.712m-10 .271 2.149-1.364c.168.508.822 1.443 1.772 1.443.949 0 1.435-.975 1.435-1.443V15h2.642v9.195c.043 1.269-.66 3.805-3.765 3.805-2.853 0-4.04-1.696-4.233-2.44"/>
  </symbol>

  <symbol id="linkedin" viewBox="0 0 24 24" fill="none" stroke="currentColor" stroke-linecap="round" stroke-linejoin="round">
    <path stroke="none" d="M0 0h24v24H0z"/><path d="M8 11v5m0-8v.01M12 16v-5m4 5v-3a2 2 0 1 0-4 0"/><path d="M3 7a4 4 0 0 1 4-4h10a4 4 0 0 1 4 4v10a4 4 0 0 1-4 4H7a4 4 0 0 1-4-4z"/>
  </symbol>

  <symbol id="linux" viewBox="0 0 32 32" fill="none">
    <path fill="#fff" d="M30 16c0 7.728-6.265 14-14 14S2 23.728 2 16C2 8.265 8.265 2 16 2s14 6.265 14 14"/><path fill="#000" d="M11.306 21.91a2.7 2.7 0 0 1-.324-.74c-1.606-1.812-.365-4.478.863-6.289q.175-.29.385-.56c.937-1.163 1.179-1.973 1.251-3.069a8 8 0 0 0-.028-.784c-.099-1.584-.263-4.216 2.563-4.45 3.533-.291 3.245 2.953 3.219 4.855l-.003.23c-.01 1.146.589 1.931 1.213 2.75.229.3.46.604.667.931l.018.03c1.092 1.574 2.17 3.923.67 6.151-.211.76-.53 1.459-.957 2.027-1.53 2.013-2.89 1.809-3.951 1.65-.32-.049-.613-.093-.876-.07a7.5 7.5 0 0 0-1.088.157c-1.167.236-1.623.328-3.622-2.819"/><path fill="url(#a)" d="M18.014 7.795c-.033.932-1.022 1.742-2.207 1.817-1.186.075-2.116-.633-2.084-1.566.033-.932 1.022-1.742 2.208-1.817 1.185-.068 2.116.633 2.083 1.566"/><path fill="url(#b)" fill-rule="evenodd" d="M15.866 10.06c.01.508.241.94.567 1.135-1.063-.095-2.382.294-2.382 1.03-.016 1.245-.71 2.795-1.208 3.91q-.149.331-.266.602a6.9 6.9 0 0 0-.516 2.385c-.818-1.127-.223-2.574.097-3.201.427-.826.418-.93.253-.736-.635 1.08-1.83 3.248-.333 4.551.047.582.189 1.145.44 1.663 2.005 4.043 5.758 2.383 6.996.286q.246-.447.404-.865a.8.8 0 0 0 .199.09c.622.183 1.552-.518 1.775-.953.268-.579-.007-.974-.924-1.443l-.138-.066c.351-1.48-.618-3.02-1.31-3.674-.13-.032-.147.042.053.242.436.417 1.384 1.907.871 3.293a2 2 0 0 0-.243-.047c-.158-.946-.578-1.682-.872-2.196q-.1-.175-.175-.315a11 11 0 0 0-.343-.592c-.483-.8-1.072-1.775-1.072-3.22-.074-.318-.374-.53-.773-.647.463-.093.811-.635.8-1.285-.014-.702-.453-1.26-.977-1.246s-.943.599-.923 1.3m.432.157c-.007.388.177.701.42.701.235 0 .438-.313.445-.694.006-.388-.177-.7-.42-.7-.242 0-.438.312-.445.693" clip-rule="evenodd"/><path fill="url(#c)" fill-rule="evenodd" d="M14.556 11.15c.38-.02.655-.531.622-1.137-.033-.605-.367-1.075-.747-1.055s-.655.531-.622 1.137.367 1.075.747 1.055m.229-.926c.033.32-.085.592-.256.62-.17.02-.334-.218-.366-.538-.033-.32.085-.592.255-.62.17-.02.334.218.367.538" clip-rule="evenodd"/><path fill="url(#d)" d="M16.396 10c-.02.217.079.394.216.408.138.014.269-.157.288-.367.02-.218-.078-.395-.216-.409-.137-.014-.268.157-.288.368"/><path fill="url(#e)" d="M14.641 10.054c.02.177-.052.334-.157.347-.105.014-.203-.122-.223-.306-.02-.177.052-.333.157-.347s.203.13.223.306"/><path fill="url(#f)" d="M18.669 17.153c0 1.197-1.107 2.75-3.007 2.736-1.958.013-2.79-1.539-2.79-2.736s1.297-2.172 2.895-2.172c1.605.007 2.902.974 2.902 2.172"/><path fill="url(#g)" d="M17.635 13.39c-.02 1.238-.8 1.53-1.782 1.53-.983 0-1.697-.183-1.782-1.53 0-.845.8-1.335 1.782-1.335.982-.007 1.782.484 1.782 1.334"/><path fill="url(#h)" d="M11.694 15.295c.642-1.014 1.997-2.573.255.217-1.415 2.3-.524 3.778-.065 4.186 1.323 1.225 1.27 2.049.229 1.402-2.234-1.382-1.769-3.71-.42-5.805"/><path fill="url(#i)" d="M20.988 15.71c-.557-1.191-2.325-4.213.085-.701 2.195 3.178.655 5.39.38 5.608s-1.198.66-.93-.109c.275-.769 1.638-2.225.465-4.798"/><path fill="url(#j)" d="M11.209 25.102c-1.467-.81-3.596.157-2.823-2.035.157-.497-.23-1.245.02-1.729.294-.592.93-.462 1.31-.857.373-.408.609-1.116 1.31-1.007.694.108 1.159.993 1.644 2.082.36.776 1.63 1.872 1.545 2.743-.104 1.334-1.565 1.586-3.006.803"/><path fill="#e68c3f" fill-rule="evenodd" d="M9.877 20.64c-.357.39-1.012.297-1.275.808-.17.328.015.832.04 1.19.03.444-.337 1.073-.15 1.452.21.425 1.161.37 1.579.431 1.03.15 2.735 1.485 3.668.42.911-1.04-.84-2.358-1.27-3.284-.28-.628-.698-1.832-1.477-1.954-.549-.085-.799.591-1.115.937m1.181-1.395c.97.152 1.455 1.409 1.813 2.212.543 1.166 2.404 2.418 1.198 3.796-1.096 1.251-2.825-.093-4.06-.273-.617-.09-1.59-.025-1.913-.678-.278-.562.14-1.07.101-1.63-.033-.477-.221-.989.01-1.441.318-.637.932-.483 1.348-.912.443-.486.708-1.198 1.503-1.074" clip-rule="evenodd"/><path fill="url(#k)" d="M21.381 24.728c1.075-1.355 3.465-1.076 1.854-2.934-.34-.401-.236-1.259-.655-1.626-.491-.45-1.035-.082-1.533-.313-.498-.252-1.021-.735-1.63-.395-.61.347-.675 1.246-.734 2.43-.053.85-.8 2.273-.4 3.056.577 1.211 2.077 1.048 3.098-.218"/><path fill="#e68c3f" fill-rule="evenodd" d="M21.81 19.698c.275-.007.605.012.915.294.385.34.389.895.534 1.359.172.55.775.864.739 1.509-.059 1.054-1.884 1.308-2.446 2.016-.54.669-1.222 1.067-1.87 1.12-.982.082-1.793-.744-1.736-1.752.047-.816.463-1.558.513-2.368.03-.586.061-1.13.167-1.571.107-.446.3-.83.682-1.048.837-.468 1.646.464 2.502.441m-2.288-.034c-.227.13-.37.368-.463.753-.094.39-.125.89-.155 1.488-.05.811-.466 1.552-.513 2.366-.041.726.517 1.325 1.256 1.264.501-.042 1.08-.359 1.562-.955.43-.543 2.305-1.046 2.344-1.747.025-.458-.576-.887-.718-1.339-.11-.353-.116-.9-.4-1.15-.18-.165-.37-.19-.614-.183-.705.019-1.645-.862-2.3-.497" clip-rule="evenodd"/><path fill="url(#l)" d="M20.916 22.917c1.663-2.552.425-2.531.006-2.729-.42-.204-.858-.605-1.35-.326-.49.285-.517 1.02-.53 1.987-.02.694-.576 1.858-.242 2.504.406.756 1.389-.34 2.116-1.436"/><path fill="url(#m)" d="M10.868 23.285c-2.489-1.675-1.323-2.246-.95-2.512.452-.34.459-.993 1.016-.932s.884.776 1.257 1.66c.275.633 1.232 1.477 1.16 2.206-.092.857-1.409.292-2.483-.422"/><path fill="#000" d="M21.748 19.936c-.196.354-.995.912-1.526.762-.544-.143-.793-.939-.681-1.538.098-.68.68-.714 1.415-.374.779.367 1.021.68.792 1.15"/><path fill="url(#n)" d="M21.21 19.739c-.124.245-.648.633-1.015.53-.366-.101-.55-.653-.49-1.068.052-.47.445-.497.943-.265.537.258.707.476.563.803"/><path fill="url(#o)" d="M14.437 10.858c.262-.252.898-1.021 2.103-.218.223.15.406.163.832.354.858.367.452 1.252-.465 1.551-.393.13-.747.627-1.454.579-.61-.034-.767-.45-1.14-.674-.662-.388-.76-.912-.4-1.19.36-.28.498-.382.524-.402"/><path fill="#e68c3f" fill-rule="evenodd" d="M13.993 11.37a.355.355 0 0 0-.135.403c.093.32.764.761 1.02.977a.92.92 0 0 0 .583.235c.578.039.9-.406 1.406-.572.333-.11 1.037-.525.804-1.001-.2-.407-.87-.432-1.203-.656-.574-.382-.992-.38-1.29-.272-.325.118-.89.658-1.185.886m1.098-1.148c.387-.14.89-.12 1.522.3.415.28 1.046.253 1.296.764.32.65-.453 1.226-.962 1.392-.544.179-.849.628-1.502.584a1.18 1.18 0 0 1-.735-.296c-.37-.31-.994-.605-1.136-1.097-.08-.272.036-.549.26-.722.36-.28.848-.778 1.257-.925" clip-rule="evenodd"/><path fill="#e68c3f" fill-rule="evenodd" d="M17.475 11.567a.09.09 0 0 1-.085.098c-.693.039-1.18.83-1.963.83-.438 0-.785-.211-1.033-.415-.05-.04-.49-.38-.49-.467 0-.051.04-.093.088-.093.093 0 .37.302.474.387.234.191.58.403.961.403.775 0 1.25-.79 1.954-.83a.09.09 0 0 1 .093.087" clip-rule="evenodd"/><path fill="url(#p)" d="M14.844 10.79c.131-.123.544-.457 1.088-.116.117.068.235.143.406.245.347.21.177.517-.243.707-.19.082-.504.259-.74.245-.262-.027-.439-.204-.61-.32-.32-.217-.3-.401-.15-.544.112-.109.236-.21.25-.218"/><defs><linearGradient id="a" x1="16.058" x2="15.836" y1="6.306" y2="9.306" gradientUnits="userSpaceOnUse"><stop stop-color="#fff" stop-opacity=".8"/><stop offset="1" stop-color="#fff" stop-opacity="0"/></linearGradient><linearGradient id="b" x1="12.897" x2="11.251" y1="22.672" y2="17.272" gradientUnits="userSpaceOnUse"><stop stop-color="#ffeed7"/><stop offset="1" stop-color="#bdbfc2"/></linearGradient><linearGradient id="c" x1="12.897" x2="11.251" y1="22.672" y2="17.272" gradientUnits="userSpaceOnUse"><stop stop-color="#ffeed7"/><stop offset="1" stop-color="#bdbfc2"/></linearGradient><linearGradient id="d" x1="16.668" x2="16.575" y1="9.655" y2="10.354" gradientUnits="userSpaceOnUse"><stop stop-color="#fff" stop-opacity=".65"/><stop offset="1" stop-color="#fff" stop-opacity="0"/></linearGradient><linearGradient id="e" x1="14.434" x2="14.534" y1="9.783" y2="10.348" gradientUnits="userSpaceOnUse"><stop stop-color="#fff" stop-opacity=".65"/><stop offset="1" stop-color="#fff" stop-opacity="0"/></linearGradient><linearGradient id="f" x1="15.761" x2="15.778" y1="15.631" y2="19.627" gradientUnits="userSpaceOnUse"><stop stop-color="#fff" stop-opacity=".8"/><stop offset="1" stop-color="#fff" stop-opacity="0"/></linearGradient><linearGradient id="g" x1="15.85" x2="15.869" y1="13.125" y2="14.714" gradientUnits="userSpaceOnUse"><stop stop-color="#fff" stop-opacity=".65"/><stop offset="1" stop-color="#fff" stop-opacity="0"/></linearGradient><linearGradient id="h" x1="11.72" x2="11.72" y1="14.105" y2="19.937" gradientUnits="userSpaceOnUse"><stop stop-color="#fff" stop-opacity=".65"/><stop offset="1" stop-color="#fff" stop-opacity="0"/></linearGradient><linearGradient id="i" x1="21.033" x2="21.031" y1="13.536" y2="18.805" gradientUnits="userSpaceOnUse"><stop stop-color="#fff" stop-opacity=".65"/><stop offset="1" stop-color="#fff" stop-opacity="0"/></linearGradient><linearGradient id="j" x1="11.429" x2="10.535" y1="22.437" y2="25.421" gradientUnits="userSpaceOnUse"><stop stop-color="#ffa63f"/><stop offset="1" stop-color="#ff0"/></linearGradient><linearGradient id="k" x1="19.882" x2="22.266" y1="21.53" y2="24.78" gradientUnits="userSpaceOnUse"><stop stop-color="#ffa63f"/><stop offset="1" stop-color="#ff0"/></linearGradient><linearGradient id="l" x1="20.52" x2="19.686" y1="18.933" y2="22.86" gradientUnits="userSpaceOnUse"><stop stop-color="#fff" stop-opacity=".65"/><stop offset="1" stop-color="#fff" stop-opacity="0"/></linearGradient><linearGradient id="m" x1="11.246" x2="11.412" y1="19.904" y2="24.324" gradientUnits="userSpaceOnUse"><stop stop-color="#fff" stop-opacity=".65"/><stop offset="1" stop-color="#fff" stop-opacity="0"/></linearGradient><linearGradient id="n" x1="20.375" x2="20.569" y1="18.862" y2="20.182" gradientUnits="userSpaceOnUse"><stop stop-color="#fff" stop-opacity=".65"/><stop offset="1" stop-color="#fff" stop-opacity="0"/></linearGradient><linearGradient id="o" x1="15.764" x2="15.78" y1="10.784" y2="13.11" gradientUnits="userSpaceOnUse"><stop stop-color="#ffa63f"/><stop offset="1" stop-color="#ff0"/></linearGradient><linearGradient id="p" x1="15.511" x2="15.506" y1="10.564" y2="11.794" gradientUnits="userSpaceOnUse"><stop stop-color="#fff" stop-opacity=".65"/><stop offset="1" stop-color="#fff" stop-opacity="0"/></linearGradient></defs>
  </symbol>

  <symbol id="meta" viewBox="0 0 24 24" fill="none" stroke="currentColor" stroke-linecap="round" stroke-linejoin="round">
    <path stroke="none" d="M0 0h24v24H0z"/><path d="M12 10.174Q14.649 5.999 16.648 6c2 0 3.263 2.213 4 5.217.704 2.869.5 6.783-2 6.783-1.114 0-2.648-1.565-4.148-3.652a27.6 27.6 0 0 1-2.5-4.174m0 0Q9.351 5.999 7.352 6c-2 0-3.263 2.213-4 5.217-.704 2.869-.5 6.783 2 6.783C6.466 18 8 16.435 9.5 14.348q1.5-2.087 2.5-4.174"/>
  </symbol>

  <symbol id="nextjs" viewBox="0 0 24 24" fill="none">
    <g clip-path="url(#a)"><path fill="#000" d="M11.214.006c-.052.005-.216.022-.364.033-3.408.308-6.6 2.147-8.624 4.974a11.9 11.9 0 0 0-2.118 5.243c-.096.66-.108.854-.108 1.748s.012 1.089.108 1.748c.652 4.507 3.86 8.293 8.209 9.696.779.251 1.6.422 2.533.526.364.04 1.936.04 2.3 0 1.611-.179 2.977-.578 4.323-1.265.207-.105.247-.134.219-.157a212 212 0 0 1-1.955-2.62l-1.919-2.593-2.404-3.559a343 343 0 0 0-2.422-3.556c-.009-.003-.018 1.578-.023 3.51-.007 3.38-.01 3.516-.052 3.596a.43.43 0 0 1-.206.213c-.075.038-.14.045-.495.045H7.81l-.108-.068a.44.44 0 0 1-.157-.172l-.05-.105.005-4.704.007-4.706.073-.092a.6.6 0 0 1 .174-.143c.096-.047.133-.051.54-.051.478 0 .558.018.682.154.035.038 1.337 2 2.895 4.362l4.734 7.172 1.9 2.878.097-.063a12.3 12.3 0 0 0 2.465-2.163 11.95 11.95 0 0 0 2.825-6.135c.096-.66.108-.854.108-1.748s-.012-1.088-.108-1.748C23.24 5.75 20.032 1.963 15.683.56a12.6 12.6 0 0 0-2.498-.523c-.226-.024-1.776-.05-1.97-.03m4.913 7.26a.47.47 0 0 1 .237.276c.018.06.023 1.365.018 4.305l-.007 4.218-.743-1.14-.746-1.14V10.72c0-1.983.009-3.097.023-3.151a.48.48 0 0 1 .232-.296c.097-.05.132-.054.5-.054.347 0 .408.005.486.047"/></g><defs><clipPath id="a"><path fill="#fff" d="M0 0h24v24H0z"/></clipPath></defs>
  </symbol>

  <symbol id="react" viewBox="0 0 32 32" fill="none">
    <path fill="#53c1de" d="M18.679 15.976c0-1.435-1.2-2.597-2.679-2.597-1.48 0-2.679 1.162-2.679 2.597 0 1.434 1.2 2.597 2.679 2.597 1.48 0 2.679-1.163 2.679-2.597"/><path fill="#53c1de" fill-rule="evenodd" d="M24.7 11.154c.566-2.23 1.277-6.363-1.23-7.764-2.495-1.395-5.742 1.278-7.456 2.883-1.71-1.589-5.048-4.25-7.552-2.845-2.494 1.4-1.725 5.465-1.147 7.708-2.327.64-6.315 2.02-6.315 4.84 0 2.811 3.984 4.313 6.297 4.953-.58 2.255-1.311 6.262 1.186 7.659 2.514 1.405 5.842-1.194 7.572-2.816 1.726 1.614 4.942 4.23 7.437 2.83 2.504-1.406 1.852-5.484 1.273-7.74 2.242-.641 6.235-2.11 6.235-4.886 0-2.793-4.01-4.184-6.3-4.822m-.284 8.513a29 29 0 0 0-1.519-3.685 29 29 0 0 0 1.46-3.631c1.679.472 5.361 1.55 5.361 3.625 0 2.094-3.533 3.183-5.302 3.691m-1.566 7.859c-1.862 1.045-4.628-1.456-5.902-2.645a29 29 0 0 0 2.514-3.096 31 31 0 0 0 4.064-.607c.407 1.595 1.194 5.298-.676 6.348m-13.726-.015c-1.863-1.041-1.011-4.616-.584-6.278a31 31 0 0 0 4.042.568 31 31 0 0 0 2.576 3.085c-1.083 1.015-4.163 3.671-6.034 2.625M2.28 15.976c0-2.102 3.661-3.173 5.378-3.643a29 29 0 0 0 1.462 3.673 30 30 0 0 0-1.48 3.726c-1.637-.454-5.36-1.653-5.36-3.756M9.104 4.504c1.87-1.05 4.77 1.506 6.012 2.656a30 30 0 0 0-2.556 3.066c-1.41.127-2.761.33-4.003.604-.466-1.81-1.321-5.278.547-6.326m11.275 7.073c.957.117 1.875.273 2.736.464a26 26 0 0 1-.96 2.504 41 41 0 0 0-1.776-2.968m-4.365-3.529a27 27 0 0 1 1.766 2.066 39 39 0 0 0-3.546 0 28 28 0 0 1 1.78-2.066m-6.157 6.496a27 27 0 0 1-.954-2.517 30 30 0 0 1 2.72-.452 36 36 0 0 0-1.766 2.97m1.793 5.922a28 28 0 0 1-2.764-.431c.264-.83.59-1.692.972-2.568a36 36 0 0 0 1.792 2.999m4.4 3.525a28 28 0 0 1-1.805-2.094q1.783.069 3.566-.006a27 27 0 0 1-1.761 2.1m6.117-6.569c.4.886.739 1.744 1.007 2.559a28 28 0 0 1-2.798.462 41 41 0 0 0 1.79-3.02m-3.42 3.172a41.5 41.5 0 0 1-5.463.01 35 35 0 0 1-2.746-4.598 35 35 0 0 1 2.73-4.59 37.4 37.4 0 0 1 5.469 0 39 39 0 0 1 2.739 4.572 39 39 0 0 1-2.729 4.606M22.83 4.467c1.87 1.046 1.038 4.76.63 6.376a32 32 0 0 0-4.012-.615 29 29 0 0 0-2.536-3.069c1.258-1.175 4.066-3.728 5.918-2.692" clip-rule="evenodd"/>
  </symbol>

  <symbol id="tailwind" viewBox="0 0 32 32">
    <title>file_type_tailwind</title><path d="M9 13.7q1.4-5.6 7-5.6c5.6 0 6.3 4.2 9.1 4.9q2.8.7 4.9-2.1-1.4 5.6-7 5.6c-5.6 0-6.3-4.2-9.1-4.9q-2.8-.7-4.9 2.1m-7 8.4q1.4-5.6 7-5.6c5.6 0 6.3 4.2 9.1 4.9q2.8.7 4.9-2.1-1.4 5.6-7 5.6c-5.6 0-6.3-4.2-9.1-4.9q-2.8-.7-4.9 2.1" style="fill:#44a8b3"/>
  </symbol>

  <symbol id="twitch" viewBox="0 0 24 24" fill="none" stroke="#607d8b" stroke-linecap="round" stroke-linejoin="round">
    <path d="M4 5v11a1 1 0 0 0 1 1h2v4l4-4h5.584c.266 0 .52-.105.707-.293l2.415-2.414c.187-.188.293-.442.293-.708V5a1 1 0 0 0-1-1h-14a1 1 0 0 0-1 1zm12 3v4m-4-4v4"/>
  </symbol>

  <symbol id="twitter" viewBox="0 0 24 24" fill="none" stroke="currentColor" stroke-linecap="round" stroke-linejoin="round">
    <path stroke="none" d="M0 0h24v24H0z"/><path d="m4 4 11.733 16H20L8.267 4zm0 16 6.768-6.768m2.46-2.46L20 4"/>
  </symbol>

  <symbol id="whatsapp" viewBox="0 0 24 24" fill="none" stroke="#607d8b" stroke-linecap="round" stroke-linejoin="round">
    <path d="m3 21 1.65-3.8a9 9 0 1 1 3.4 2.9z"/><path d="M9 10a.5.5 0 0 0 1 0V9a.5.5 0 0 0-1 0za5 5 0 0 0 5 5h1a.5.5 0 0 0 0-1h-1a.5.5 0 0 0 0 1"/>
  </symbol>

  <symbol id="youtube" viewBox="0 0 24 24" fill="none" stroke="currentColor" stroke-linecap="round" stroke-linejoin="round">
    <path stroke="none" d="M0 0h24v24H0z"/><path d="M2 8a4 4 0 0 1 4-4h12a4 4 0 0 1 4 4v8a4 4 0 0 1-4 4H6a4 4 0 0 1-4-4z"/><path d="m10 9 5 3-5 3z"/>
  </symbol>
</svg>
